{
  "source": "C:\\Users\\Peter\\Desktop\\stuff\\MIUN\\quantitative_research\\video_compression\\videos\\BVI-HD\\BVI-HD_CDVL_videos\\ORIG\\Bookcase_1920x1080_60fps.mp4",
  "output": "C:\\Users\\Peter\\Desktop\\stuff\\MIUN\\quantitative_research\\video_compression\\compressed_videos\\BVI-HD\\vp9\\4\\Bookcase_1920x1080_60fps_vp9.webm",
  "codec": "vp9",
  "ok": "Input #0, mov,mp4,m4a,3gp,3g2,mj2, from 'C:\\Users\\Peter\\Desktop\\stuff\\MIUN\\quantitative_research\\video_compression\\videos\\BVI-HD\\BVI-HD_CDVL_videos\\ORIG\\Bookcase_1920x1080_60fps.mp4':\n  Metadata:\n    major_brand     : isom\n    minor_version   : 512\n    compatible_brands: isomiso2avc1mp41\n    encoder         : Lavf54.28.101\n  Duration: 00:00:05.00, start: 0.000000, bitrate: 336321 kb/s\n  Stream #0:0[0x1](und): Video: h264 (High 4:4:4 Predictive) (avc1 / 0x31637661), yuv420p(progressive), 1920x1080, 336316 kb/s, 60 fps, 60 tbr, 60 tbn (default)\n    Metadata:\n      handler_name    : VideoHandler\n      vendor_id       : [0][0][0][0]\n[out#0/webm @ 000001f9e22e1580] Codec AVOption b:a (set bitrate (in bits/s)) has not been used for any stream. The most likely reason is either wrong type (e.g. a video option with no video streams) or that it is a private option of some decoder which was not actually used for any stream.\nStream mapping:\n  Stream #0:0 -> #0:0 (h264 (native) -> vp9 (libvpx-vp9))\nPress [q] to stop, [?] for help\n[libvpx-vp9 @ 000001f9e28c05c0] v1.15.2-100-g40561f514\nOutput #0, webm, to 'C:\\Users\\Peter\\Desktop\\stuff\\MIUN\\quantitative_research\\video_compression\\compressed_videos\\BVI-HD\\vp9\\4\\Bookcase_1920x1080_60fps_vp9.webm':\n  Metadata:\n    major_brand     : isom\n    minor_version   : 512\n    compatible_brands: isomiso2avc1mp41\n    encoder         : Lavf62.3.100\n  Stream #0:0(und): Video: vp9, yuv420p(tv, progressive), 1920x1080, q=2-31, 4000 kb/s, 60 fps, 1k tbn (default)\n    Metadata:\n      encoder         : Lavc62.11.100 libvpx-vp9\n      handler_name    : VideoHandler\n      vendor_id       : [0][0][0][0]\n    Side data:\n      cpb: bitrate max/min/avg: 0/0/0 buffer size: 4000000 vbv_delay: N/A\nframe=    0 fps=0.0 q=0.0 size=       0KiB time=N/A bitrate=N/A speed=N/A elapsed=0:00:00.53    \nframe=    6 fps=5.6 q=36.0 size=       1KiB time=00:00:00.10 bitrate=  50.6kbits/s speed=0.0933x elapsed=0:00:01.07    \nframe=   12 fps=7.6 q=32.0 size=       1KiB time=00:00:00.20 bitrate=  25.3kbits/s speed=0.126x elapsed=0:00:01.58    \nframe=   18 fps=8.5 q=32.0 size=       1KiB time=00:00:00.30 bitrate=  16.9kbits/s speed=0.141x elapsed=0:00:02.12    \nframe=   24 fps=9.0 q=33.0 size=       1KiB time=00:00:00.40 bitrate=  12.7kbits/s speed=0.15x elapsed=0:00:02.66    \nframe=   31 fps=9.6 q=33.0 size=       1KiB time=00:00:00.51 bitrate=   9.8kbits/s speed=0.16x elapsed=0:00:03.22    \nframe=   36 fps=9.5 q=30.0 size=       1KiB time=00:00:00.60 bitrate=   8.4kbits/s speed=0.159x elapsed=0:00:03.78    \nframe=   42 fps=9.7 q=30.0 size=       1KiB time=00:00:00.70 bitrate=   7.2kbits/s speed=0.162x elapsed=0:00:04.32    \nframe=   48 fps=9.8 q=32.0 size=       1KiB time=00:00:00.80 bitrate=   6.3kbits/s speed=0.164x elapsed=0:00:04.89    \nframe=   53 fps=9.8 q=26.0 size=       1KiB time=00:00:00.88 bitrate=   5.7kbits/s speed=0.163x elapsed=0:00:05.43    \nframe=   60 fps= 10 q=32.0 size=       1KiB time=00:00:00.98 bitrate=   5.1kbits/s speed=0.165x elapsed=0:00:05.97    \nframe=   65 fps= 10 q=25.0 size=       1KiB time=00:00:01.06 bitrate=   4.7kbits/s speed=0.164x elapsed=0:00:06.51    \nframe=   72 fps= 10 q=34.0 size=       1KiB time=00:00:01.18 bitrate=   4.3kbits/s speed=0.167x elapsed=0:00:07.07    \nframe=   76 fps= 10 q=31.0 size=       1KiB time=00:00:01.26 bitrate=   4.0kbits/s speed=0.167x elapsed=0:00:07.58    \nframe=   82 fps= 10 q=34.0 size=       1KiB time=00:00:01.36 bitrate=   3.7kbits/s speed=0.169x elapsed=0:00:08.10    \nframe=   87 fps= 10 q=28.0 size=       1KiB time=00:00:01.45 bitrate=   3.5kbits/s speed=0.167x elapsed=0:00:08.65    \nframe=   94 fps= 10 q=33.0 size=       1KiB time=00:00:01.56 bitrate=   3.2kbits/s speed=0.171x elapsed=0:00:09.17    \nframe=   99 fps= 10 q=30.0 size=       1KiB time=00:00:01.65 bitrate=   3.1kbits/s speed=0.17x elapsed=0:00:09.73    \nframe=  104 fps= 10 q=29.0 size=       1KiB time=00:00:01.73 bitrate=   2.9kbits/s speed=0.168x elapsed=0:00:10.31    \nframe=  109 fps= 10 q=21.0 size=       1KiB time=00:00:01.81 bitrate=   2.8kbits/s speed=0.168x elapsed=0:00:10.83    \nframe=  114 fps= 10 q=42.0 size=       1KiB time=00:00:01.90 bitrate=   2.7kbits/s speed=0.167x elapsed=0:00:11.37    \nframe=  120 fps= 10 q=28.0 size=       1KiB time=00:00:02.00 bitrate=   2.5kbits/s speed=0.168x elapsed=0:00:11.88    \nframe=  124 fps= 10 q=31.0 size=       1KiB time=00:00:02.06 bitrate=   2.5kbits/s speed=0.166x elapsed=0:00:12.44    \nframe=  129 fps= 10 q=21.0 size=       1KiB time=00:00:02.13 bitrate=   2.4kbits/s speed=0.165x elapsed=0:00:12.95    \nframe=  134 fps=9.9 q=30.0 size=    1024KiB time=00:00:02.23 bitrate=3756.1kbits/s speed=0.165x elapsed=0:00:13.52    \nframe=  139 fps=9.9 q=32.0 size=    1024KiB time=00:00:02.31 bitrate=3621.0kbits/s speed=0.164x elapsed=0:00:14.11    \nframe=  145 fps=9.9 q=38.0 size=    1024KiB time=00:00:02.41 bitrate=3471.1kbits/s speed=0.165x elapsed=0:00:14.63    \nframe=  151 fps= 10 q=41.0 size=    1024KiB time=00:00:02.51 bitrate=3333.2kbits/s speed=0.166x elapsed=0:00:15.15    \nframe=  156 fps=9.9 q=29.0 size=    1024KiB time=00:00:02.60 bitrate=3226.4kbits/s speed=0.165x elapsed=0:00:15.72    \nframe=  162 fps= 10 q=33.0 size=    1024KiB time=00:00:02.70 bitrate=3106.9kbits/s speed=0.166x elapsed=0:00:16.24    \nframe=  168 fps= 10 q=30.0 size=    1024KiB time=00:00:02.80 bitrate=2995.9kbits/s speed=0.167x elapsed=0:00:16.78    \nframe=  174 fps= 10 q=38.0 size=    1024KiB time=00:00:02.90 bitrate=2892.6kbits/s speed=0.167x elapsed=0:00:17.31    \nframe=  179 fps= 10 q=40.0 size=    1024KiB time=00:00:02.98 bitrate=2811.8kbits/s speed=0.167x elapsed=0:00:17.86    \nframe=  185 fps= 10 q=38.0 size=    1024KiB time=00:00:03.08 bitrate=2720.6kbits/s speed=0.168x elapsed=0:00:18.38    \nframe=  191 fps= 10 q=32.0 size=    1024KiB time=00:00:03.16 bitrate=2649.0kbits/s speed=0.167x elapsed=0:00:18.90    \nframe=  196 fps= 10 q=43.0 size=    1024KiB time=00:00:03.26 bitrate=2567.9kbits/s speed=0.168x elapsed=0:00:19.46    \nframe=  202 fps= 10 q=36.0 size=    1024KiB time=00:00:03.35 bitrate=2504.1kbits/s speed=0.168x elapsed=0:00:19.98    \nframe=  208 fps= 10 q=34.0 size=    1024KiB time=00:00:03.46 bitrate=2419.8kbits/s speed=0.169x elapsed=0:00:20.54    \nframe=  213 fps= 10 q=32.0 size=    1024KiB time=00:00:03.55 bitrate=2363.0kbits/s speed=0.168x elapsed=0:00:21.08    \nframe=  220 fps= 10 q=38.0 size=    1024KiB time=00:00:03.65 bitrate=2298.2kbits/s speed=0.169x elapsed=0:00:21.61    \nframe=  226 fps= 10 q=31.0 size=    1024KiB time=00:00:03.75 bitrate=2237.0kbits/s speed=0.169x elapsed=0:00:22.17    \nframe=  232 fps= 10 q=32.0 size=    1024KiB time=00:00:03.86 bitrate=2169.5kbits/s speed=0.17x elapsed=0:00:22.70    \nframe=  238 fps= 10 q=28.0 size=    1024KiB time=00:00:03.96 bitrate=2114.8kbits/s speed=0.171x elapsed=0:00:23.24    \nframe=  244 fps= 10 q=33.0 size=    1024KiB time=00:00:04.06 bitrate=2062.8kbits/s speed=0.171x elapsed=0:00:23.77    \nframe=  250 fps= 10 q=33.0 size=    1024KiB time=00:00:04.16 bitrate=2013.3kbits/s speed=0.171x elapsed=0:00:24.31    \nframe=  256 fps= 10 q=36.0 size=    1024KiB time=00:00:04.26 bitrate=1966.1kbits/s speed=0.172x elapsed=0:00:24.83    \nframe=  262 fps= 10 q=28.0 size=    2304KiB time=00:00:04.36 bitrate=4322.4kbits/s speed=0.172x elapsed=0:00:25.37    \nframe=  268 fps= 10 q=29.0 size=    2304KiB time=00:00:04.46 bitrate=4225.6kbits/s speed=0.173x elapsed=0:00:25.89    \nframe=  275 fps= 10 q=36.0 size=    2304KiB time=00:00:04.58 bitrate=4118.0kbits/s speed=0.173x elapsed=0:00:26.41    \nframe=  276 fps= 10 q=38.0 size=    2304KiB time=00:00:04.60 bitrate=4103.1kbits/s speed=0.171x elapsed=0:00:26.95    \nframe=  276 fps= 10 q=38.0 size=    2304KiB time=00:00:04.60 bitrate=4103.1kbits/s speed=0.168x elapsed=0:00:27.46    \nframe=  276 fps=9.9 q=38.0 size=    2304KiB time=00:00:04.60 bitrate=4103.1kbits/s speed=0.164x elapsed=0:00:27.98    \nframe=  276 fps=9.7 q=38.0 size=    2304KiB time=00:00:04.60 bitrate=4103.1kbits/s speed=0.161x elapsed=0:00:28.51    \n[out#0/webm @ 000001f9e22e1580] video:2816KiB audio:0KiB subtitle:0KiB other streams:0KiB global headers:0KiB muxing overhead: 0.099218%\nframe=  300 fps= 11 q=41.0 Lsize=    2819KiB time=00:00:05.00 bitrate=4618.2kbits/s speed=0.175x elapsed=0:00:28.57    \n",
  "seconds": 28.833245277404785,
  "probe_out": {}
}